<svg xmlns="http://www.w3.org/2000/svg" width="1000" height="1000" stroke="#000" stroke-linecap="round" stroke-linejoin="round" fill="#fff" fill-rule="evenodd">
    <path d="M665.0762 249.285929867726c47.5671-19.5368 98.9547-31.4192 150.5839-29.6035 43.9236 1.2944 87.263 11.7422 127.8989 28.1565 20.032 8.2767 39.6197 17.6074 58.7507 27.7757l-34.3393 147.2582-56.1609-.013c-3.7576-9.7238-5.4583-20.1208-9.7622-29.6545-6.3095-12.8471-18.3438-21.9998-31.5462-27.0014-12.0091-4.964-24.8561-7.2743-37.6906-8.8231-26.9254-3.7574-54.5869-.5204-80.268 8.239-20.6034 6.6647-38.9219 18.7245-55.92 31.8635-9.3056 7.6041-17.4932 16.4141-25.7573 25.1099-11.6285 13.3677-21.1874 28.3729-29.8962 43.7712-11.7043 21.3017-19.118 44.7233-23.7263 68.5259l37.9571-.1778c-4.0242 25.2242-3.6174 52.4162 8.1374 75.6476 7.0582 14.1037 19.6767 24.9321 34.4277 30.3527 26.3542 9.445 54.9298 9.0896 82.4135 6.1313l13.3804-57.7097c-28.3722.1523-56.7579-.1649-85.1303.1523 4.7732-18.0641 8.0867-36.5098 12.8977-54.5742-12.923.457-25.8588-.0636-38.7819.2921l18.4326-80.1163 261.6875-.0759-18.4583 80.2555c12.8599-.5078 25.7573.1395 38.6298-.3554l-45.2691 196.5893-45.8524 16.4017c-12.6572 4.735-25.847 7.7691-38.7701 11.6152-40.0261 10.3462-80.9536 17.7853-122.3252 19.6134-44.6092 2.3865-90.3738-2.4628-131.758-20.0448-33.9456-14.4466-65.6952-37.538-84.1402-70.1 3.3007 24.0565 4.5701 48.3797 7.4898 72.4994l-183.6408-.0255-7.4773-100.4401-101.6333.0382-52.4034 100.3128c-60.1219.0763-120.2437-.1521-180.3656.127l129.9298-232.1215H85.6924l167.1885-298.9715 178.1569.0252 25.313 267.197c.1015 6.157 1.9169 12.1741 1.3081 18.3818 11.2344-45.98 30.3269-90.0427 56.44-129.5363 22.7487-36.1797 51.8702-68.1195 84.5719-95.5524 20.4633-16.249 42.6283-30.518 66.4054-41.4355m-376.3836 160.6127l-48.1127 119.2535 39.6452.0255-2.8308 7.5915 49.167.0124v-7.5912c-13.0125-.0252-26.0248 0-39.0367-.0127l1.168-119.279z" fill="#2f6cf4" fill-rule="nonzero" stroke="none"/>
</svg>