<svg xmlns="http://www.w3.org/2000/svg" version="1.1" xmlns:xlink="http://www.w3.org/1999/xlink" width="1000" height="1000"><g clip-path="url(#SvgjsClipPath1307)"><rect width="1000" height="1000" fill="#ffffff"></rect><g transform="matrix(4,0,0,4,0,0)"><svg xmlns="http://www.w3.org/2000/svg" version="1.1" xmlns:xlink="http://www.w3.org/1999/xlink" width="250" height="250"><svg xmlns="http://www.w3.org/2000/svg" width="250" height="250" viewBox="0 0 250 250" stroke="#000" stroke-linecap="round" stroke-linejoin="round" fill="#fff" fill-rule="evenodd" data-darkreader-inline-fill="" data-darkreader-inline-stroke="" style="--darkreader-inline-fill: var(--darkreader-background-ffffff, #181a1b); --darkreader-inline-stroke: var(--darkreader-text-000000, #e8e6e3);">
    <path d="M161.45875 68.648491465493c10.6179-4.361 22.0883-7.0135 33.6127-6.6077 9.8044.2886 19.4782 2.6208 28.549 6.2849 4.4715 1.8475 8.8438 3.93 13.1141 6.2l-7.6652 32.8701-12.5361-.0029c-.8388-2.1707-1.2185-4.4916-2.1787-6.6196-1.4086-2.8675-4.095-4.9107-7.0418-6.027-2.6806-1.1082-5.5483-1.6238-8.4134-1.9694-6.0099-.8386-12.1845-.1161-17.917 1.839-4.5989 1.4875-8.6877 4.1798-12.4819 7.1122-2.0771 1.6975-3.9046 3.664-5.7495 5.6052-2.5955 2.9837-4.7292 6.3331-6.6731 9.7702-2.6124 4.7549-4.2675 9.9831-5.296 15.2959l8.4725-.0397c-.8984 5.6307-.8077 11.7003 1.8166 16.886 1.5751 3.148 4.3919 5.5649 7.6844 6.7751 5.8829 2.1079 12.2614 2.0285 18.3961 1.3685l2.9868-12.8818c-6.3336.0342-12.6694-.0365-19.0023.0342 1.0651-4.0323 1.8051-8.1494 2.8787-12.182-2.8847.1022-5.7721-.0141-8.6566.0651l4.1142-17.8828 58.4124-.017-4.12 17.9143c2.8707-.1134 5.7496.031 8.6225-.0796l-10.1042 43.8818-10.2349 3.6608c-2.8254 1.0569-5.7696 1.7344-8.6546 2.5932-8.9341 2.3094-18.0699 3.9695-27.3047 4.3777-9.9572.5329-20.1726-.5496-29.4103-4.4741-7.5767-3.225-14.6638-8.3794-18.7813-15.6473.7368 5.3696 1.0202 10.7988 1.6719 16.1827l-40.9913-.0057-1.669-22.4196-22.6861.0085-11.6967 22.3914c-13.42.0169-26.8402-.0342-40.2605.0281l29.0019-51.8128h-9.135l37.3188-66.7351 39.7673.0057 5.6501 59.6424c.0223 1.3746.4276 2.7174.2916 4.1033 2.5079-10.2635 6.7694-20.0991 12.5982-28.9143 5.0782-8.0758 11.5785-15.2055 18.8777-21.3289 4.5679-3.6268 9.5156-6.8117 14.8227-9.249m-84.0139 35.8511l-10.7399 26.6191 8.8498.0057-.6323 1.6942 10.9749.0031v-1.6945c-2.9047-.0056-5.809 0-8.7137-.0028l.2612-26.6248z" stroke="none" fill="#2f6cf4" fill-rule="nonzero" data-darkreader-inline-fill="" data-darkreader-inline-stroke="" style="--darkreader-inline-fill: var(--darkreader-background-2f6cf4, #093cad); --darkreader-inline-stroke: none;"></path>
</svg></svg></g></g><defs><clipPath id="SvgjsClipPath1307"><rect width="1000" height="1000" x="0" y="0" rx="200" ry="200"></rect></clipPath></defs></svg>