<svg xmlns="http://www.w3.org/2000/svg" version="1.1" xmlns:xlink="http://www.w3.org/1999/xlink" xmlns:svgjs="http://svgjs.dev/svgjs" width="95.4879" height="53.174303208855"><svg xmlns="http://www.w3.org/2000/svg" width="95.4879" height="53.174303208855" stroke="#000" stroke-linecap="round" stroke-linejoin="round" fill="#fff" fill-rule="evenodd">
    <path d="M63.4664 2.828392438636c4.5166-1.8553 9.3961-2.9834 14.2983-2.8111 4.1706.1228 8.2859 1.115 12.1445 2.6736 1.9023.7859 3.7621 1.6718 5.5787 2.6375l-3.2606 13.9825-5.3329-.0011c-.3567-.9233-.5183-1.9105-.9268-2.816-.5993-1.2198-1.742-2.0889-2.9956-2.5636-1.1402-.4715-2.3601-.6909-3.5788-.8378-2.5566-.357-5.1833-.0497-7.6218.7821-1.9565.633-3.6956 1.778-5.3099 3.0256-.8835.722-1.661 1.5588-2.4457 2.3843-1.1043 1.2695-2.0116 2.6942-2.8388 4.1564-1.1114 2.0225-1.8154 4.2466-2.2528 6.5069l3.6043-.017c-.3823 2.3949-.3435 4.9771.7724 7.1829.6702 1.3394 1.8684 2.3677 3.269 2.8823 2.5024.897 5.2161.8632 7.8257.5824l1.2703-5.4801c-2.6939.0146-5.3891-.0158-8.0835.0146.4534-1.7153.7679-3.4667 1.2251-5.1821-1.2273.0434-2.4556-.0062-3.6829.0277l1.7505-7.6072 24.8483-.0073-1.7527 7.6207c1.2211-.0485 2.4459.013 3.6681-.0339l-4.2985 18.6672-4.3541 1.5572c-1.2017.4497-2.4542.7378-3.6814 1.103-3.8004.9824-7.6869 1.6888-11.615 1.8623-4.2356.2266-8.5813-.2338-12.5112-1.9032-3.2233-1.3718-6.238-3.5645-7.9895-6.6562.3134 2.2842.4339 4.5936.7113 6.8839l-17.4379-.0022-.7095-9.5372-9.651.0033-4.9752 9.5254c-5.7088.0071-11.4177-.0146-17.1268.0119l12.337-22.0408H8.451l15.8756-28.3888 16.9165.0026 2.4036 25.3713c.0097.5847.182 1.156.124 1.7453 1.0667-4.3658 2.8798-8.5498 5.3594-12.2997 2.1601-3.4356 4.9253-6.4684 8.0304-9.0733 1.9433-1.5428 4.0482-2.8978 6.3059-3.9343m-35.7397 15.2508l-4.5687 11.3236 3.7647.0025-.269.7207 4.6687.0013v-.7209c-1.2357-.0024-2.4707 0-3.7064-.0011l.1107-11.3261z" stroke="none" fill="#2f6cf4" fill-rule="nonzero"></path>
</svg><style>@media (prefers-color-scheme: light) { :root { filter: none; } }
@media (prefers-color-scheme: dark) { :root { filter: none; } }
</style></svg>